<svg xmlns="http://www.w3.org/2000/svg" viewBox="0 0 213.59 308.24"><defs><style>.cls-1,.cls-10,.cls-11,.cls-9{fill:none;stroke-miterlimit:10;}.cls-1{stroke:#231f20;}.cls-2{font-size:36px;}.cls-2,.cls-5{fill:#fff;font-family:Gabriola;}.cls-3{letter-spacing:-0.03em;}.cls-4{letter-spacing:0em;}.cls-5{font-size:12px;}.cls-6{font-family:MyriadPro-Regular, Myriad Pro;letter-spacing:0em;}.cls-7{letter-spacing:0.01em;}.cls-8{letter-spacing:0em;}.cls-10,.cls-11,.cls-9{stroke:#fff;}.cls-9{stroke-width:0.98px;}.cls-10{stroke-width:0.99px;}.cls-11{stroke-width:0.99px;}</style></defs><g id="Layer_2" data-name="Layer 2"><g id="Layer_1_copy" data-name="Layer 1 copy"><rect class="cls-1" x="31.81" y="76.98" width="150" height="150" transform="translate(138.75 -31.02) rotate(45)"/><rect class="cls-1" x="31.77" y="80.1" width="150" height="150" transform="translate(140.94 -30.07) rotate(45)"/><rect class="cls-1" x="122.65" y="12.9" width="58.87" height="58.87" transform="translate(74.48 -95.14) rotate(45)"/><rect class="cls-1" x="122.65" y="15.77" width="58.87" height="58.87" transform="translate(76.51 -94.3) rotate(45)"/><rect class="cls-1" x="32.77" y="233.6" width="58.87" height="58.87" transform="translate(204.21 33.06) rotate(45)"/><rect class="cls-1" x="32.77" y="236.48" width="58.87" height="58.87" transform="translate(206.25 33.9) rotate(45)"/><text class="cls-2" transform="translate(55.8 155.75)">Alan <tspan class="cls-3" x="59.4" y="0">X</tspan><tspan class="cls-4" x="75.54" y="0">ue</tspan></text><text class="cls-5" transform="translate(79.07 171.95)">Mech E<tspan class="cls-6" x="27.2" y="0">· </tspan><tspan x="32.18" y="0">Comp</tspan><tspan class="cls-7" x="54.64" y="0"> </tspan><tspan class="cls-8" x="56.88" y="0">S</tspan><tspan x="61.13" y="0">ci </tspan></text><rect class="cls-9" x="123.23" y="13.49" width="57.68" height="57.68" transform="translate(74.47 -95.13) rotate(45)"/><rect class="cls-9" x="123.23" y="16.3" width="57.68" height="57.68" transform="translate(76.46 -94.31) rotate(45)"/><rect class="cls-10" x="33.18" y="234.01" width="57.95" height="58.07" transform="translate(204.21 33.1) rotate(45)"/><rect class="cls-10" x="33.18" y="236.84" width="57.95" height="58.07" transform="translate(206.21 33.93) rotate(45)"/><rect class="cls-11" x="32.32" y="77.38" width="148.95" height="148.89" transform="translate(138.64 -31.05) rotate(45)"/><rect class="cls-11" x="32.28" y="80.48" width="148.95" height="148.89" transform="translate(140.81 -30.11) rotate(45)"/></g></g></svg>